<svg xmlns="http://www.w3.org/2000/svg" width="48" height="49" viewBox="0 0 48 49" fill="none">
    <path d="M20.5092 40.2734L20.5063 40.2757V40.2746L20.5092 40.2734Z" fill="#252529"/>
    <path d="M24.0181 23.3193C23.9718 23.3503 23.922 23.3768 23.8711 23.4016L24.0181 23.3193Z" fill="#252529"/>
    <path d="M23.8922 31.7599C23.8922 31.7599 24.6955 31.7447 25.4781 32.9157L28.1418 31.1759C28.1418 31.1759 25.7038 30.019 27.3083 27.0839C27.3083 27.0839 24.9925 25.1092 27.0855 22.048C27.0855 22.048 28.2043 19.5551 31.2778 21.3361C31.2778 21.3361 31.7548 17.5618 26.9518 17.7584C26.9518 17.7584 25.3322 17.8688 23.873 19.2025L23.8922 31.7605V31.7599Z" fill="#252529"/>
    <path d="M40.961 40.65C42.966 38.3205 42.9898 35.5144 42.9996 34.322C43.0477 28.6733 39.0249 25.9089 40.1252 19.8688C40.1264 19.8637 40.1819 19.5612 40.1819 19.5612C40.2103 19.4424 40.2416 19.341 40.2693 19.2605L40.4916 18.615C40.5408 18.4815 40.4881 18.3323 40.3631 18.2596C40.0882 18.0985 39.5701 17.9031 39.0012 18.2388C38.7476 18.388 38.5503 18.6122 38.4235 18.873C38.1694 19.3951 37.5865 20.6139 37.3324 21.3107L37.2468 21.7489C37.2468 21.7489 34.3504 21.9561 33.4191 22.6574C33.4191 22.6574 32.8223 23.0026 32.9931 24.4062C33.0081 24.5318 33.1169 24.627 33.2466 24.627C33.356 24.627 33.4636 24.6056 33.5655 24.5662C33.9209 24.4276 34.8939 24.1747 35.5972 25.1993C36.4723 26.4739 37.4743 28.0577 37.5038 29.5891C37.5333 31.12 37.7052 32.318 37.0888 33.6546C36.4723 34.9917 34.5964 36.1802 31.5553 35.0052C31.5553 35.0052 29.1046 33.9903 27.9765 32.8458C27.7808 32.6475 27.4758 32.5895 27.2223 32.7112C27.2177 32.7134 27.213 32.7157 27.2078 32.7179C26.7899 32.9263 25.2896 33.2755 25.8407 35.1658C25.8407 35.1658 25.994 37.2047 24.1372 37.5821V48.9291H26.7164C26.7164 48.9291 26.5358 45.571 28.2798 44.3646C28.4482 44.248 28.4876 44.021 28.3707 43.8554C27.7409 42.9672 26.115 40.3853 26.6851 38.1115C26.6851 38.1115 32.1943 43.1857 34.366 43.767C35.5213 43.6571 38.7708 43.1947 40.9599 40.6506L40.961 40.65Z" fill="#252529"/>
    <path d="M24.006 37.0548C24.6652 37.0548 25.1995 36.0148 25.1995 34.732C25.1995 33.4491 24.6652 32.4092 24.006 32.4092C23.3469 32.4092 22.8125 33.4491 22.8125 34.732C22.8125 36.0148 23.3469 37.0548 24.006 37.0548Z" fill="#252529"/>
    <path d="M24.1195 31.7599C24.1195 31.7599 23.3161 31.7447 22.5335 32.9157L19.8698 31.1759C19.8698 31.1759 22.3078 30.019 20.7033 27.0839C20.7033 27.0839 23.0191 25.1092 20.9262 22.048C20.9262 22.048 19.8073 19.5551 16.7338 21.3361C16.7338 21.3361 16.2569 17.5618 21.0599 17.7584C21.0599 17.7584 22.6794 17.8688 24.1386 19.2025L24.1195 31.7605V31.7599Z" fill="#252529"/>
    <path d="M22.8124 48.928H24.9459L24.5593 37.4543C24.4661 37.4988 24.3272 37.5535 24.153 37.5782C23.9348 37.6098 23.5307 37.6132 22.9247 37.2341C22.1034 36.7199 21.9072 36.1256 21.7717 36.147C21.5055 36.1893 21.5327 38.5938 22.8124 48.928Z" fill="#252529"/>
    <path d="M23.9651 18.2178L20.1021 16.4515C20.1021 16.4515 22.9892 5.41092 23.7532 1.14777C23.8007 0.883052 24.1885 0.875729 24.2464 1.13876L27.6353 16.5292L23.9651 18.2173V18.2178Z" fill="#252529"/>
    <path d="M34.5343 2.90856C33.3402 4.51266 30.1185 10.14 33.6371 20.7401C33.6371 20.7401 34.5279 21.2966 36.4229 20.8815C36.4229 20.8815 37.1193 18.8414 37.0973 17.9701C37.0973 17.9701 33.3448 13.4366 34.8439 3.03191C34.8688 2.85843 34.6396 2.76662 34.5337 2.90856H34.5343Z" fill="#252529"/>
    <path d="M7.03901 40.6666C5.034 38.3371 5.01027 35.531 5.00043 34.3386C4.95239 28.6899 8.97514 25.9255 7.87482 19.8854C7.87366 19.8803 7.8181 19.5779 7.8181 19.5779C7.78973 19.459 7.75848 19.3576 7.73069 19.2771L7.50843 18.6316C7.45923 18.4981 7.5119 18.3489 7.63693 18.2762C7.91186 18.1151 8.4299 17.9197 8.99888 18.2554C9.2524 18.4046 9.44977 18.6288 9.57653 18.8896C9.83063 19.4117 10.4135 20.6305 10.6676 21.3273L10.7533 21.7655C10.7533 21.7655 13.6497 21.9727 14.581 22.674C14.581 22.674 15.1777 23.0192 15.007 24.4228C14.9919 24.5484 14.8831 24.6436 14.7535 24.6436C14.6441 24.6436 14.5364 24.6222 14.4345 24.5828C14.0791 24.4442 13.1061 24.1913 12.4029 25.2159C11.5277 26.4905 10.5258 28.0743 10.4963 29.6057C10.4668 31.1366 10.2948 32.3346 10.9113 33.6712C11.5277 35.0083 13.4037 36.1968 16.4447 35.0218C16.4447 35.0218 18.8954 34.0069 20.0236 32.8624C20.2192 32.6641 20.5242 32.6061 20.7777 32.7278C20.7824 32.73 20.787 32.7323 20.7922 32.7345C21.2101 32.9429 22.7104 33.2921 22.1594 35.1824C22.1594 35.1824 22.006 37.2213 23.8628 37.5987V48.9457H21.2836C21.2836 48.9457 21.4642 45.5876 19.7203 44.3812C19.5518 44.2646 19.5125 44.0376 19.6294 43.872C20.2591 42.9838 21.885 40.4019 21.3149 38.1281C21.3149 38.1281 15.8057 43.2023 13.634 43.7836C12.4787 43.6737 9.22924 43.2113 7.04017 40.6672L7.03901 40.6666Z" fill="#252529"/>
    <path d="M13.4658 2.92516C14.6599 4.52926 17.8816 10.1566 14.363 20.7567C14.363 20.7567 13.4722 21.3132 11.5772 20.8981C11.5772 20.8981 10.8809 18.858 10.9029 17.9867C10.9029 17.9867 14.6553 13.4532 13.1562 3.04851C13.1313 2.87503 13.3605 2.78322 13.4664 2.92516H13.4658Z" fill="#252529"/>
    <path d="M21.3516 48.9454H26.7177L26.5638 47.543L21.3516 48.9454Z" fill="#252529"/>
  </svg>